<?xml version="1.0" encoding="UTF-8"?><svg id="a" xmlns="http://www.w3.org/2000/svg" width="649.94" height="68.72" viewBox="0 0 649.94 68.72"><defs><style>.d{stroke-dasharray:11.73 11.73;}.d,.e{fill:none;stroke:#5ab685;stroke-linecap:round;stroke-miterlimit:10;stroke-width:3px;}.f{fill:#5ab685;}</style></defs><g id="b"><line class="e" x1="44.69" y1="38.79" x2="50.69" y2="38.79"/><line class="d" x1="62.43" y1="38.79" x2="572.76" y2="38.79"/><line class="e" x1="578.62" y1="38.79" x2="584.62" y2="38.79"/><path class="f" d="M44.88,42.51c-2.06,0-3.72-1.67-3.72-3.72s1.67-3.72,3.72-3.72,3.72,1.67,3.72,3.72-1.67,3.72-3.72,3.72Z"/><path class="f" d="M584.44,42.51c2.06,0,3.72-1.67,3.72-3.72s-1.67-3.72-3.72-3.72-3.72,1.67-3.72,3.72,1.67,3.72,3.72,3.72Z"/></g><g id="c"><path class="e" d="M30.04,11.52c-1.4,14.56-7.53,30.25-18.39,44.81"/><polygon class="f" points="24.69 12.55 30.76 4.02 35.11 13.55 24.69 12.55"/><polygon class="f" points="8.37 51.98 7.15 62.38 16.77 58.24 8.37 51.98"/></g></svg>