<?xml version="1.0" encoding="UTF-8"?><svg id="a" xmlns="http://www.w3.org/2000/svg" width="99.1" height="35.64" viewBox="0 0 99.1 35.64"><defs><style>.c{fill:#9ca3af;}</style></defs><path id="b" class="c" d="M12.73,31.73c-5.56-2.32-9.26-6.87-10.05-12.7l.28-.72c.08-.21.81-.25,1.03-.13l5.27,2.93c3.12,1.74,6.65.58,8.33-2.5l1.91-3.53c1.43-2.63.3-5.89-2.18-7.43l-5.74-3.19-.37-.8c-.08-.18.31-.55.49-.69,5.44-2.54,11.57-1.64,16.32,1.99,1.4,1,2.43,2.2,3.61,3.51,1.06,1.18,2.74,2.11,4.5,2.11l50.77.06c3.76,0,6.56,3.23,6.64,6.7s-2.65,6.91-6.39,6.91l-50.55.07c-2.24,0-4.03.96-5.37,2.62-4.45,5.5-11.91,7.75-18.5,4.78h0ZM85.82,19.5c1.36-.21,1.98-1.1,1.95-2.15-.03-.97-.84-1.91-2.07-1.91h-50.89c-1.27,0-2.1.86-2.17,1.91-.06.93.68,2.14,1.93,2.14h51.25,0Z"/></svg>