<?xml version="1.0" encoding="UTF-8"?><svg id="a" xmlns="http://www.w3.org/2000/svg" width="113.1" height="37.6" viewBox="0 0 113.1 37.6"><defs><style>.c{fill:#9ca3af;}</style></defs><path id="b" class="c" d="M26.7,31.7c-5.6-2.3-9.3-6.9-10-12.7l.3-.7c0-.2.8-.3,1-.1l5.3,2.9c3.1,1.7,6.7.6,8.3-2.5l1.9-3.5c1.4-2.6.3-5.9-2.2-7.4l-5.7-3.2-.4-.8c0-.2.3-.6.5-.7,5.4-2.5,11.6-1.6,16.3,2,1.4,1,2.4,2.2,3.6,3.5,1.1,1.2,2.7,2.1,4.5,2.1h50.8c3.8,0,6.6,3.3,6.6,6.8s-2.7,6.9-6.4,6.9h-50.6c-2.2,0-4,1-5.4,2.7-4.4,5.5-11.9,7.7-18.5,4.8h0l.1-.1ZM99.8,19.5c1.4-.2,2-1.1,1.9-2.1,0-1-.8-1.9-2.1-1.9h-50.9c-1.3,0-2.1.9-2.2,1.9,0,.9.7,2.1,1.9,2.1h51.4Z"/></svg>