<?xml version="1.0" encoding="UTF-8"?><svg id="a" xmlns="http://www.w3.org/2000/svg" width="243.14" height="80.27" viewBox="0 0 243.14 80.27"><defs><style>.b{fill:#d1d5dc;}</style></defs><path class="b" d="M207.63,20.93h-110.19c-3.31.18-7.38-1.95-9.76-4.56-2.6-2.82-4.77-5.42-7.81-7.59C69.68.97,56.23-.98,44.51,4.44c-2.09.96-.2,2.09-.2,2.09l20.99,13.06c.98.61,1.55,1.69,1.52,2.84l-.57,16.9c-.04,1.15-.69,2.19-1.7,2.73l-14.92,7.96c-1.02.54-2.24.5-3.22-.11l-17.59-10.56c-3.93-2.88-3.84-.21-3.84-.21,1.52,12.58,9.54,22.56,21.69,27.55l-.22.22c14.32,6.29,30.58,1.52,40.13-10.41,3.04-3.69,6.94-5.86,11.71-5.86h109.76c8.03,0,13.88-7.38,13.88-14.97s-6.07-14.75-14.32-14.75ZM205.25,40.23h-101.49c-2.6,0-4.12-2.6-4.12-4.56.22-2.17,1.95-4.12,4.77-4.12h100.41c2.82,0,4.56,1.95,4.56,4.12.22,2.17-1.08,4.12-4.12,4.56Z"/></svg>