<?xml version="1.0" encoding="UTF-8"?><svg id="a" xmlns="http://www.w3.org/2000/svg" width="435" height="116" viewBox="0 0 435 116"><path id="b" d="M151.28,84.04c-10.06-4.19-16.76-12.43-18.18-22.99l.51-1.31c.15-.38,1.47-.46,1.87-.23l9.53,5.3c5.64,3.14,12.04,1.05,15.07-4.53l3.46-6.39c2.58-4.76.55-10.65-3.94-13.44l-10.39-5.77-.67-1.45c-.15-.33.57-1,.88-1.24,9.85-4.6,20.94-2.96,29.54,3.6,2.53,1.81,4.4,3.98,6.53,6.35,1.92,2.14,4.96,3.82,8.14,3.82l91.88.1c6.8,0,11.88,5.84,12.01,12.13s-4.8,12.5-11.56,12.51l-91.48.13c-4.05,0-7.3,1.74-9.72,4.74-8.05,9.95-21.56,14.02-33.47,8.65ZM283.56,61.9c2.46-.38,3.59-1.99,3.52-3.89-.06-1.75-1.52-3.46-3.75-3.46h-92.09c-2.29,0-3.8,1.55-3.92,3.46-.11,1.68,1.23,3.87,3.5,3.87h92.75Z"/></svg>